<svg width="50" height="44" viewBox="0 0 50 44" fill="none" xmlns="http://www.w3.org/2000/svg">
<rect width="50" height="44" rx="5" fill="#FF0000"/>
<path d="M15.0837 18.9641L25.1561 8.46907L35.7293 18.5259" stroke="white" stroke-width="2" stroke-linecap="round" stroke-linejoin="round"/>
<path d="M16.7105 29.2107C15.9804 29.2262 15.2737 28.9704 14.7457 28.4996C14.2177 28.0288 13.9118 27.3815 13.8952 26.7002C13.8869 26.3595 13.7339 26.0358 13.4699 25.8004C13.2059 25.565 12.8525 25.4371 12.4875 25.4449C12.1225 25.4526 11.7757 25.5954 11.5234 25.8417C11.2712 26.0881 11.1341 26.4179 11.1424 26.7586C11.1756 28.1212 11.7875 29.4158 12.8435 30.3574C13.8994 31.2991 15.313 31.8107 16.7731 31.7797L20.9022 31.6921C21.6323 31.6766 22.3391 31.9324 22.867 32.4032C23.395 32.874 23.701 33.5213 23.7176 34.2026C23.7259 34.5433 23.8788 34.8669 24.1428 35.1024C24.4068 35.3378 24.7602 35.4657 25.1252 35.4579C25.4903 35.4502 25.837 35.3074 26.0893 35.0611C26.3415 34.8147 26.4786 34.4849 26.4703 34.1442C26.4537 33.4629 26.7278 32.8033 27.2323 32.3106C27.7368 31.8178 28.4304 31.5323 29.1604 31.5168L33.2895 31.4292C34.7497 31.3982 36.1368 30.8272 37.1458 29.8417C38.1548 28.8563 38.703 27.5371 38.6698 26.1744C38.6615 25.8337 38.5086 25.5101 38.2446 25.2747C37.9806 25.0393 37.6272 24.9114 37.2622 24.9191C36.8971 24.9269 36.5503 25.0696 36.2981 25.316C36.0458 25.5624 35.9088 25.8922 35.9171 26.2328C35.9337 26.9142 35.6596 27.5738 35.1551 28.0665C34.6506 28.5592 33.957 28.8447 33.227 28.8602L29.0978 28.9479C28.3141 28.9686 27.5442 29.1453 26.8396 29.4661C26.135 29.7869 25.5118 30.2444 25.0119 30.8081C24.4851 30.2662 23.8403 29.8356 23.1208 29.545C22.4013 29.2544 21.6235 29.1106 20.8396 29.1231L16.7105 29.2107Z" fill="white"/>
</svg>
